<svg height="512pt" viewBox="0 0 512 512" width="512pt" xmlns="http://www.w3.org/2000/svg"><path d="m383.84375 316.328125c0 103.925781-84.25 188.171875-188.171875 188.171875-103.925781 0-188.171875-84.246094-188.171875-188.171875 0-103.921875 84.246094-188.171875 188.171875-188.171875 103.921875 0 188.171875 84.25 188.171875 188.171875zm0 0" fill="#6990d7"/><path d="m259.128906 139.128906c51.035156 33.652344 84.714844 91.492188 84.714844 157.199219 0 103.925781-84.25 188.171875-188.171875 188.171875-22.269531 0-43.632813-3.867188-63.457031-10.96875 29.683594 19.574219 65.238281 30.96875 103.457031 30.96875 103.921875 0 188.171875-84.246094 188.171875-188.171875 0-81.65625-52.015625-151.164063-124.714844-177.199219zm0 0" fill="#4172cc"/><path d="m195.671875 128.15625c25.660156 0 50.117187 5.144531 72.40625 14.445312l-12.960937-47.496093c-1.109376-4.070313-4.808594-6.894531-9.027344-6.894531h-100.835938c-4.222656 0-7.917968 2.824218-9.03125 6.894531l-12.957031 47.496093c22.289063-9.300781 46.746094-14.445312 72.40625-14.445312zm0 0" fill="#4172cc"/><path d="m504.449219 74.65625c0-1.085938-11.195313-7.703125-28.339844-12.703125-1.160156-.335937-2.105469-1.171875-2.570313-2.289063-.003906-.011718-.007812-.023437-.011718-.035156-.464844-1.117187-.390625-2.378906.191406-3.4375 8.59375-15.660156 11.832031-28.253906 11.0625-29.023437s-13.367188 2.46875-29.023438 11.0625c-1.058593.582031-2.320312.65625-3.4375.191406-.011718-.003906-.023437-.007813-.035156-.015625-1.117187-.460938-1.953125-1.40625-2.292968-2.566406-4.996094-17.144532-11.609376-28.339844-12.699219-28.339844-1.085938 0-7.703125 11.195312-12.699219 28.34375-.339844 1.15625-1.175781 2.101562-2.292969 2.566406-.011719.003906-.023437.007813-.035156.015625-1.117187.460938-2.378906.386719-3.4375-.195312-15.65625-8.589844-28.253906-11.828125-29.019531-11.058594-.769532.765625 2.46875 13.363281 11.058594 29.019531.582031 1.058594.65625 2.320313.195312 3.4375-.007812.011719-.011719.023438-.015625.035156-.460937 1.117188-1.410156 1.953126-2.566406 2.292969-17.148438 4.996094-28.34375 11.613281-28.34375 12.699219 0 1.089844 11.195312 7.703125 28.34375 12.703125 1.15625.335937 2.105469 1.171875 2.566406 2.289063.003906.011718.007813.023437.015625.035156.460938 1.117187.386719 2.378906-.195312 3.4375-8.589844 15.660156-11.828126 28.253906-11.058594 29.023437.765625.769531 13.363281-2.46875 29.019531-11.058593 1.058594-.582032 2.320313-.660157 3.4375-.195313.011719.003906.023437.007813.035156.015625 1.117188.460938 1.953125 1.40625 2.292969 2.566406 4.996094 17.144532 11.613281 28.339844 12.699219 28.339844 1.089843 0 7.703125-11.195312 12.703125-28.339844.335937-1.160156 1.175781-2.105468 2.289062-2.566406.011719-.007812.023438-.011719.035156-.015625 1.117188-.464844 2.378907-.386719 3.441407.195313 15.65625 8.589843 28.25 11.828124 29.019531 11.058593s-2.46875-13.363281-11.058594-29.023437c-.582031-1.058594-.660156-2.320313-.195312-3.4375.003906-.011719.007812-.023438.015625-.035156.460937-1.117188 1.40625-1.953126 2.566406-2.289063 17.144531-5 28.339844-11.617187 28.339844-12.703125zm0 0" fill="#eb5793"/><path d="m437.292969 62.703125c-6.902344 0-12.5 5.597656-12.5 12.5v27.152344c0 3.285156-.371094 6.484375-1.054688 9.570312.390625.4375.6875.964844.855469 1.546875 4.996094 17.144532 11.613281 28.339844 12.699219 28.339844.042969 0 .09375-.019531.148437-.050781 7.777344-11.195313 12.351563-24.773438 12.351563-39.40625v-27.152344c0-6.902344-5.597657-12.5-12.5-12.5zm0 0" fill="#e7387f"/><path d="m437.292969 141.8125c-1.085938 0-7.703125-11.195312-12.699219-28.339844-.167969-.582031-.464844-1.109375-.855469-1.546875-4.386719 19.808594-22.082031 34.671875-43.191406 34.671875-24.394531 0-44.242187-19.847656-44.242187-44.242187v-21.785157c0-40.292968-32.78125-73.070312-73.070313-73.070312h-18.820313c-33.769531 0-61.242187 27.472656-61.242187 61.242188v19.46875h25v-19.46875c0-19.984376 16.257813-36.242188 36.242187-36.242188h18.820313c26.503906 0 48.070313 21.5625 48.070313 48.070312v21.785157c0 38.179687 31.0625 69.242187 69.242187 69.242187 23.550781 0 44.378906-11.824218 56.894531-29.835937-.054687.03125-.105468.050781-.148437.050781zm0 0" fill="#fff2b2"/><path d="m289.835938 329.191406 2.542968-34.511718c4.160156-56.542969-38.792968-104.519532-95.488281-105.210938-56.980469-.699219-102.175781 47.507812-98.003906 104.164062l2.621093 35.558594c.320313 4.367188-1.667968 8.617188-5.300781 11.054688-5.046875 3.386718-8.367187 9.140625-8.367187 15.671875 0 10.417969 8.445312 18.859375 18.859375 18.859375h20c7.941406 0 14.65625 5.890625 15.6875 13.765625l6.113281 46.546875c.609375 4.640625 4.5625 8.109375 9.242188 8.109375h75.859374c4.679688 0 8.632813-3.46875 9.242188-8.109375l6.109375-46.546875c1.035156-7.875 7.75-13.765625 15.691406-13.765625h19.996094c10.417969 0 18.863281-8.441406 18.863281-18.859375 0-6.53125-3.320312-12.285157-8.367187-15.671875-3.632813-2.4375-5.621094-6.6875-5.300781-11.054688zm0 0" fill="#e5e2e6"/><g fill="#6990d7"><path d="m209.214844 377.53125c0 7.480469-6.066406 9.347656-13.542969 9.347656-7.480469 0-13.542969-1.867187-13.542969-9.347656 0-7.476562 6.0625-27.085938 13.542969-27.085938 7.476563 0 13.542969 19.609376 13.542969 27.085938zm0 0"/><path d="m180.652344 324.886719c0 15.953125-12.933594 28.886719-28.886719 28.886719s-28.882813-12.933594-28.882813-28.886719 12.929688-28.882813 28.882813-28.882813 28.886719 12.929688 28.886719 28.882813zm0 0"/><path d="m268.460938 324.886719c0 15.953125-12.933594 28.886719-28.886719 28.886719s-28.886719-12.933594-28.886719-28.886719 12.933594-28.882813 28.886719-28.882813 28.886719 12.929688 28.886719 28.882813zm0 0"/></g><path d="m500 63.03125c-3.820312-1.867188-9.804688-4.484375-17.691406-7.019531 3.785156-7.371094 6.164062-13.457031 7.542968-17.476563 2.929688-8.523437 3.710938-13.191406.230469-16.667968-3.476562-3.480469-8.144531-2.699219-16.667969.230468-4.019531 1.382813-10.105468 3.757813-17.476562 7.546875-2.53125-7.890625-5.152344-13.875-7.019531-17.695312-3.957031-8.097657-6.703125-11.949219-11.625-11.949219-4.917969 0-7.664063 3.851562-11.621094 11.949219-1.867187 3.820312-4.488281 9.804687-7.023437 17.691406-7.371094-3.785156-13.453126-6.164063-17.476563-7.542969-8.519531-2.925781-13.1875-3.710937-16.667969-.230468-3.476562 3.480468-2.695312 8.144531.230469 16.667968 1.382813 4.023438 3.757813 10.105469 7.546875 17.476563-7.890625 2.535156-13.875 5.15625-17.695312 7.023437-8.097657 3.953125-11.949219 6.703125-11.949219 11.621094s3.851562 7.667969 11.949219 11.625c3.820312 1.867188 9.804687 4.488281 17.695312 7.019531-3.789062 7.371094-6.164062 13.457031-7.546875 17.476563-2.925781 8.523437-3.707031 13.191406-.230469 16.667968 3.480469 3.480469 8.148438 2.699219 16.667969-.230468 2.421875-.832032 5.589844-2.023438 9.339844-3.667969-6.757813 9.476563-17.859375 15.550781-29.960938 15.550781-20.261719 0-36.746093-16.484375-36.746093-36.742187v-21.785157c0-44.425781-36.144532-80.570312-80.570313-80.570312h-18.820313c-37.902343 0-68.742187 30.839844-68.742187 68.742188v11.96875h-30.417969c-7.582031 0-14.269531 5.105468-16.265625 12.421874l-12.019531 44.054688c-68.816406 30.351562-116.96875 99.230469-116.96875 179.140625 0 52.5 20.507812 101.789063 57.75 138.796875 2.9375 2.921875 7.683594 2.902344 10.605469-.03125 2.917969-2.941406 2.90625-7.6875-.035157-10.609375-34.382812-34.167969-53.320312-79.679687-53.320312-128.15625 0-99.621094 81.050781-180.671875 180.671875-180.671875s180.671875 81.050781 180.671875 180.671875-81.050781 180.671875-180.671875 180.671875c-36.132813 0-70.996094-10.628906-100.832031-30.730469-3.4375-2.316406-8.097656-1.410156-10.410156 2.027344-2.316407 3.433594-1.410157 8.09375 2.027343 10.410156 32.320313 21.78125 70.085938 33.292969 109.214844 33.292969 107.890625 0 195.671875-87.777344 195.671875-195.671875 0-79.910156-48.15625-148.789063-116.96875-179.136719l-12.019531-44.058594c-1.996094-7.3125-8.683594-12.421874-16.265625-12.421874h-30.417969v-11.96875c0-15.847657 12.894531-28.742188 28.742187-28.742188h18.820313c11.554687 0 22.601563 4.972656 30.3125 13.640625 2.753906 3.09375 7.492187 3.375 10.589844.621094 3.09375-2.753907 3.371093-7.492188.621093-10.585938-10.554687-11.871093-25.691406-18.675781-41.523437-18.675781h-18.820313c-24.117187 0-43.742187 19.625-43.742187 43.742188v11.96875h-10v-11.96875c0-29.632813 24.109375-53.742188 53.742187-53.742188h18.820313c36.15625 0 65.570313 29.414062 65.570313 65.570312v21.785157c0 28.53125 23.210937 51.742187 51.742187 51.742187 17.261719 0 33.070313-8.773437 42.550781-22.402344 1.75 4.136719 3.609375 7.863282 4.882813 10.117188-11.699219 14.046875-29.058594 22.285156-47.429688 22.285156-34.046875 0-61.746093-27.699218-61.746093-61.742187v-21.785157c0-4.144531-3.359376-7.5-7.5-7.5-4.144532 0-7.5 3.355469-7.5 7.5v21.785157c0 42.316406 34.425781 76.742187 76.746093 76.742187 24.792969 0 48.097657-12.058594 62.523438-32.308594 4.761719-4.792968 10.523437-19.824218 12.867187-27.117187 7.371094 3.785156 13.453125 6.164063 17.476563 7.542969 8.519531 2.929687 13.191406 3.710937 16.667969.230468 3.476562-3.476562 2.695312-8.144531-.230469-16.667968-1.382813-4.019532-3.761719-10.105469-7.546875-17.476563 7.890625-2.535156 13.871094-5.15625 17.695312-7.019531 8.09375-3.957031 11.945313-6.707031 11.945313-11.625s-3.851563-7.667969-11.949219-11.625zm-253.910156 32.679688c.835937 0 1.574218.5625 1.792968 1.371093l9.117188 33.421875c-19.296875-6.386718-39.917969-9.84375-61.328125-9.84375-21.414063 0-42.035156 3.457032-61.332031 9.84375l9.117187-33.421875c.21875-.808593.957031-1.371093 1.792969-1.371093zm196.203125 6.644531c0 8.460937-1.714844 16.710937-5.015625 24.355469-1.753906-4.050782-3.703125-9.230469-5.484375-15.339844-.058594-.203125-.125-.402344-.195313-.605469.460938-2.789063.695313-5.609375.695313-8.410156v-27.152344c0-2.757813 2.242187-5 5-5 2.757812 0 5 2.242187 5 5zm24.324219-15.59375c-.011719.027343-.023438.058593-.035157.089843-1.320312 3.21875-1.117187 6.816407.5625 9.878907 3.070313 5.59375 5.359375 10.65625 6.988281 14.765625-4.113281-1.628906-9.171874-3.917969-14.765624-6.988282-.671876-.367187-1.371094-.664062-2.085938-.890624.023438-1.289063.007812 1.769531.011719-28.414063 0-11.027344-8.972657-20-20-20-11.027344 0-20 8.972656-20 20-.007813 30.269531.019531 27.234375-.023438 28.425781-.703125.222656-1.386719.515625-2.050781.878906-5.59375 3.070313-10.652344 5.359376-14.761719 6.988282 1.625-4.109375 3.914063-9.171875 6.984375-14.765625 1.691406-3.078125 1.886719-6.695313.535156-9.949219-3.035156-7.332031-8.011718-5.734375-22.78125-12.125 14.640626-6.332031 19.753907-4.808594 22.792969-12.148438 3.054688-7.359374-1.5625-9.613281-7.53125-24.6875 14.890625 5.894532 17.363281 10.570313 24.71875 7.519532 7.328125-3.039063 5.730469-8.015625 12.117188-22.777344 6.363281 14.703125 4.796875 19.742188 12.152343 22.789062 7.363282 3.054688 9.601563-1.558593 24.6875-7.53125-6.074218 15.339844-10.582031 17.25-7.550781 24.640626.011719.027343.019531.054687.03125.078124 3.042969 7.347657 7.925781 5.695313 22.777344 12.121094-14.597656 6.3125-19.75 4.8125-22.773437 12.101563zm0 0"/><path d="m92.027344 334.019531c-7.316406 4.910157-11.6875 13.097657-11.6875 21.898438 0 14.535156 11.824218 26.359375 26.359375 26.359375h19.996093c4.164063 0 7.714844 3.113281 8.253907 7.242187l6.113281 46.546875c1.09375 8.339844 8.265625 14.632813 16.675781 14.632813h75.863281c8.414063 0 15.582032-6.292969 16.675782-14.632813l6.113281-46.546875c.542969-4.125 4.089844-7.238281 8.253906-7.238281h19.996094c14.535156 0 26.359375-11.828125 26.359375-26.359375 0-8.804687-4.367188-16.992187-11.6875-21.902344-1.359375-.914062-2.125-2.550781-2-4.273437l1.261719-17.128906c.304687-4.132813-2.796875-7.726563-6.929688-8.03125-4.128906-.296876-7.722656 2.796874-8.03125 6.929687l-1.257812 17.128906c-.523438 7.085938 2.773437 13.921875 8.601562 17.832031 3.15625 2.117188 5.042969 5.648438 5.042969 9.445313 0 6.261719-5.097656 11.359375-11.359375 11.359375h-19.996094c-11.667969 0-21.609375 8.722656-23.128906 20.285156l-6.109375 46.546875c-.121094.90625-.894531 1.585938-1.804688 1.585938h-5.960937v-12.933594c0-4.140625-3.355469-7.5-7.5-7.5-4.140625 0-7.5 3.359375-7.5 7.5v12.933594h-9.46875v-12.933594c0-4.140625-3.359375-7.5-7.5-7.5-4.144531 0-7.5 3.359375-7.5 7.5v12.933594h-9.472656v-12.933594c0-4.140625-3.359375-7.5-7.5-7.5-4.144531 0-7.5 3.359375-7.5 7.5v12.933594h-5.960938c-.910156 0-1.683593-.679688-1.804687-1.585938l-6.109375-46.542969c-1.519531-11.566406-11.460938-20.289062-23.128907-20.289062h-19.996093c-6.261719 0-11.359375-5.097656-11.359375-11.359375 0-3.796875 1.886718-7.324219 5.042968-9.445313 5.828126-3.910156 9.125-10.742187 8.605469-17.832031l-2.621093-35.558593c-3.765626-51.15625 36.78125-96.828126 90.433593-96.117188 46.375.566406 84.222657 36.027344 88.042969 82.480469.339844 4.128906 3.957031 7.195312 8.089844 6.863281 4.125-.339844 7.199218-3.960938 6.859375-8.089844-4.457031-54.210937-48.65625-95.589844-102.808594-96.25-61.957031-.667968-110.03125 51.738282-105.578125 112.214844l2.621094 35.558594c.125 1.722656-.640625 3.359375-2 4.273437zm0 0"/><path d="m195.671875 394.378906c18.992187 0 21.042969-11.78125 21.042969-16.847656 0-8.335938-6.332032-34.585938-21.042969-34.585938s-21.042969 26.25-21.042969 34.585938c0 5.066406 2.050782 16.847656 21.042969 16.847656zm0-35.398437c2.707031 3.78125 6.042969 13.558593 6.042969 18.550781 0 .523438-.066406.800781-.097656.910156-.261719.179688-1.625.941406-5.945313.941406-4.324219 0-5.6875-.761718-5.949219-.941406-.03125-.109375-.09375-.386718-.09375-.910156 0-4.988281 3.332032-14.769531 6.042969-18.550781zm0 0"/><path d="m151.765625 288.503906c-20.0625 0-36.382813 16.320313-36.382813 36.382813s16.320313 36.386719 36.382813 36.386719 36.386719-16.324219 36.386719-36.386719-16.324219-36.382813-36.386719-36.382813zm0 57.769532c-11.789063 0-21.382813-9.59375-21.382813-21.386719s9.59375-21.382813 21.382813-21.382813c11.792969 0 21.386719 9.589844 21.386719 21.382813s-9.59375 21.386719-21.386719 21.386719zm0 0"/><path d="m275.960938 324.886719c0-20.0625-16.324219-36.382813-36.386719-36.382813s-36.386719 16.320313-36.386719 36.382813 16.324219 36.386719 36.386719 36.386719 36.386719-16.324219 36.386719-36.386719zm-57.773438 0c0-11.792969 9.59375-21.382813 21.386719-21.382813s21.386719 9.589844 21.386719 21.382813-9.59375 21.386719-21.386719 21.386719-21.386719-9.59375-21.386719-21.386719zm0 0"/></svg>