<svg id="_x33_0" enable-background="new 0 0 64 64" height="512" viewBox="0 0 64 64" width="512" xmlns="http://www.w3.org/2000/svg"><g><g><g><path d="m56.9 49.4c-.54-6.28-4.86-11.59-10.9-13.4-1.28 1.28-2.79 2.28-4.43 2.96s-3.41 1.04-5.23 1.04h-.34-.34c-3.63 0-7.1-1.44-9.66-4-5.25 1.57-9.5 5.34-11.72 10.24l-2.28-10.24h-6v17.43c0 3.63 2.94 6.57 6.57 6.57 1.57 0 3.08-.56 4.28-1.58l5.15-4.42v8h14 14 8z" fill="#e6e9ed"/></g><g><path d="m40 46h6v8h-6z" fill="#fcd770"/></g><g><path d="m44.18 32.36c-1.35.95-2.96 1.54-4.71 1.63-.69 1.2-1.99 2.01-3.47 2.01s-2.78-.81-3.46-2.01h-.01c-1.75-.09-3.36-.68-4.71-1.63l-1.82 3.64c2.56 2.56 6.03 4 9.66 4h.34.34c1.82 0 3.59-.36 5.23-1.04s3.15-1.68 4.43-2.96z" fill="#ccd1d9"/></g><g><path d="m38 4v8h-4v-8-1c0-.55.45-1 1-1h2c.55 0 1 .45 1 1z" fill="#e6e9ed"/></g><g><path d="m34 4v8h-10c.57-4.57 4.46-8 9.06-8z" fill="#aab2bd"/></g><g><path d="m48 12h-10v-8h.94c4.6 0 8.49 3.43 9.06 8z" fill="#aab2bd"/></g><g><path d="m50 13v2c0 .55-.45 1-1 1h-1-4-16-4-1c-.55 0-1-.45-1-1v-2c0-.55.45-1 1-1h1 10 4 10 1c.55 0 1 .45 1 1z" fill="#ccd1d9"/></g><g><path d="m32 32c0 .72.19 1.4.53 1.99-1.75-.09-3.36-.68-4.71-1.63-2.31-1.63-3.82-4.32-3.82-7.36v-9h4v9c0 2.42 1.71 4.43 3.99 4.9h.01z" fill="#e6e9ed"/></g><g><path d="m40 32v-2.1c2.28-.46 4-2.48 4-4.9v-9h4v9c0 3.04-1.51 5.73-3.82 7.36-1.35.95-2.96 1.54-4.71 1.63.34-.59.53-1.27.53-1.99z" fill="#e6e9ed"/></g><g><path d="m12 28c.55 0 1.05.22 1.41.59.37.36.59.86.59 1.41v2.34c0 1.06-.42 2.08-1.17 2.83l-.83.83h-6v-9c0-.83.34-1.58.88-2.12s1.29-.88 2.12-.88c1.66 0 3 1.34 3 3z" fill="#f0d0b4"/></g><g><path d="m44 25c0 2.42-1.72 4.44-4 4.9v-1.9c0-2.21-1.79-4-4-4s-4 1.79-4 4v1.9h-.01c-2.28-.47-3.99-2.48-3.99-4.9v-9h16z" fill="#f0d0b4"/></g><g><path d="m36 24c-2.21 0-4 1.79-4 4v1.9 2.1c0-2.21 1.79-4 4-4s4 1.79 4 4v-2.1-1.9c0-2.21-1.79-4-4-4z" fill="#969faa"/></g><g><path d="m36 28c2.21 0 4 1.79 4 4 0 .72-.19 1.4-.53 1.99-.69 1.2-1.99 2.01-3.47 2.01s-2.78-.81-3.46-2.01h-.01c-.34-.59-.53-1.27-.53-1.99 0-2.21 1.79-4 4-4z" fill="#aab2bd"/></g></g><g><circle cx="36" cy="32" r="1"/><circle cx="32" cy="20" r="1"/><circle cx="40" cy="20" r="1"/><path d="m39 55h8v-10h-8zm2-2v-2h4v2zm4-6v2h-4v-2z"/><path d="m59.091 63-1.191-13.686c-.572-6.578-4.948-12.071-11.189-14.128l-1.271-2.542c2.18-1.837 3.56-4.583 3.56-7.644v-8c1.103 0 2-.897 2-2v-2c0-1.103-.897-2-2-2h-.159c-.989-4.598-5.068-7.968-9.841-7.997v-.003c0-1.103-.897-2-2-2h-2c-1.103 0-2 .897-2 2v.003c-4.773.029-8.852 3.399-9.841 7.997h-.159c-1.103 0-2 .897-2 2v2c0 1.103.897 2 2 2v8c0 3.062 1.38 5.808 3.559 7.646l-1.275 2.551c-4.414 1.436-8.149 4.362-10.605 8.245l-1.583-7.122.439-.44c.944-.944 1.465-2.2 1.465-3.536v-2.344c0-1.302-.839-2.402-2-2.816v-.184c0-2.206-1.794-4-4-4s-4 1.794-4 4v26.431c0 4.173 3.396 7.569 7.569 7.569 1.807 0 3.557-.647 4.926-1.822l3.505-3.004v6.826zm-30.091-46h14v8c0 1.453-.795 2.756-2 3.457v-.457c0-2.757-2.243-5-5-5s-5 2.243-5 5v.456c-1.205-.701-2-2.003-2-3.456zm6 10.101c-.743.152-1.416.482-2 .924v-.025c0-1.302.839-2.402 2-2.816zm2-1.917c1.161.414 2 1.514 2 2.816v.026c-.584-.442-1.257-.773-2-.924zm-1 3.816c1.654 0 3 1.346 3 3s-1.346 3-3 3-3-1.346-3-3 1.346-3 3-3zm19.908 20.488 1.001 11.512h-5.909v-16h-2v16h-12v-20.032c3.454-.152 6.686-1.493 9.234-3.832 5.4 1.843 9.177 6.628 9.674 12.352zm-11.134-13.704c-2.159 1.933-4.878 3.038-7.774 3.186v-2.071c1.24-.253 2.305-.975 3.027-1.962 1.349-.138 2.614-.539 3.746-1.155zm2.226-10.784c0 3.743-2.57 6.904-6.077 7.766.039-.251.077-.504.077-.766v-1.358c2.357-.837 4-3.084 4-5.642v-8h2zm-.223-14h-7.777v-5.997c3.677.028 6.833 2.529 7.777 5.997zm-9.777-8v8h-2v-8zm-4 2.003v5.997h-7.777c.944-3.468 4.1-5.969 7.777-5.997zm-10 7.997h26l.002 2h-26.002zm2 12v-8h2v8c0 2.558 1.644 4.805 4 5.642v1.358c0 .263.038.515.078.767-3.508-.862-6.078-4.022-6.078-7.767zm6.973 9.936c.722.987 1.787 1.71 3.027 1.963v2.071c-2.896-.148-5.615-1.253-7.774-3.186l1.001-2.003c1.132.616 2.397 1.017 3.746 1.155zm-22.973-9.936c1.103 0 2 .897 2 2v.184c-1.161.414-2 1.514-2 2.816v1h2v-1c0-.552.448-1 1-1s1 .448 1 1v2.343c0 .802-.313 1.556-.879 2.122l-.535.535h-4.586v-8c0-1.103.897-2 2-2zm7.193 32.659c-1.007.864-2.295 1.341-3.624 1.341-3.071 0-5.569-2.498-5.569-5.569v-16.431h4.198l3.826 17.217 1.953-.434-1.646-7.408c2.082-4.376 5.852-7.701 10.443-9.233 2.547 2.335 5.776 3.673 9.227 3.825v20.033h-12.001v-16h-2v8.54z"/></g></g></svg>