<?xml version="1.0" standalone="no"?>
<!DOCTYPE svg PUBLIC "-//W3C//DTD SVG 20010904//EN"
 "http://www.w3.org/TR/2001/REC-SVG-20010904/DTD/svg10.dtd">
<svg version="1.0" xmlns="http://www.w3.org/2000/svg"
 width="700.000000pt" height="700.000000pt" viewBox="0 0 700.000000 700.000000"
 preserveAspectRatio="xMidYMid meet">
<metadata>
Created by potrace 1.11, written by Peter Selinger 2001-2013
</metadata>
<g transform="translate(0.000000,700.000000) scale(0.100000,-0.100000)"
fill="#000000" stroke="none">
<path d="M3220 6994 c-134 -22 -260 -68 -373 -135 -98 -59 -240 -201 -305
-308 -51 -84 -107 -222 -118 -290 -3 -20 -8 -40 -11 -45 -3 -4 -7 -76 -9 -159
-2 -82 -6 -152 -9 -155 -3 -3 -110 -6 -237 -6 -252 -2 -257 -3 -327 -62 -42
-35 -53 -58 -90 -194 -18 -63 -43 -153 -56 -200 -13 -47 -38 -137 -55 -200
l-31 -116 -82 -39 c-149 -70 -344 -190 -472 -290 -120 -94 -295 -257 -375
-351 -249 -291 -410 -568 -528 -909 -23 -65 -60 -195 -68 -235 -3 -14 -9 -41
-14 -60 -10 -39 -13 -58 -30 -175 -6 -44 -14 -91 -17 -105 -3 -14 -6 -131 -7
-260 -2 -198 1 -259 20 -390 33 -230 101 -483 182 -675 31 -76 148 -300 192
-370 97 -155 259 -359 367 -462 46 -44 61 -53 92 -53 20 0 46 6 57 14 18 13
25 10 85 -40 35 -31 85 -71 111 -91 42 -33 46 -38 34 -55 -15 -21 -7 -78 14
-104 16 -19 167 -112 273 -169 163 -86 445 -194 577 -220 8 -2 42 -10 75 -18
33 -9 76 -18 95 -21 19 -3 53 -8 75 -11 22 -3 47 -8 55 -10 71 -19 462 -27
620 -12 211 19 453 73 660 149 734 268 1336 870 1598 1598 118 328 163 599
157 955 -3 188 -6 232 -19 325 -61 419 -230 851 -454 1160 -53 73 -107 145
-117 156 -5 7 -30 36 -55 65 -213 253 -542 507 -847 654 -107 52 -108 54 -128
144 -4 15 -21 81 -50 186 -27 98 -45 166 -59 218 -41 156 -73 209 -151 250
-37 19 -58 21 -270 23 -126 1 -234 3 -238 3 -4 1 -7 54 -6 119 1 129 18 192
70 269 57 82 161 147 261 160 104 13 392 6 454 -11 98 -28 183 -77 260 -150
26 -25 52 -47 58 -48 38 -5 67 -4 72 3 19 31 61 -32 97 -141 29 -91 29 -95 -3
-107 -16 -6 -38 -25 -48 -43 -18 -29 -20 -49 -17 -253 2 -122 8 -247 15 -277
6 -30 13 -65 16 -78 42 -208 220 -464 419 -601 295 -205 660 -244 998 -108
155 63 296 168 412 307 80 96 120 167 175 306 23 60 44 110 45 112 2 2 25 -8
52 -21 78 -40 236 -96 296 -105 92 -15 147 27 147 113 0 44 -46 187 -94 290
-20 43 -36 81 -36 86 0 4 24 15 53 24 94 31 230 95 290 137 50 36 66 91 42
150 -16 39 -137 108 -297 169 -49 18 -88 35 -88 39 0 4 14 35 31 71 45 91 99
260 99 306 0 38 -18 75 -50 101 -30 25 -140 7 -268 -43 -64 -26 -127 -53 -139
-61 -12 -8 -26 -14 -31 -14 -5 0 -23 39 -41 88 -39 102 -103 230 -134 266 -53
61 -128 58 -180 -7 -38 -47 -102 -178 -138 -279 -13 -38 -26 -68 -30 -68 -3 0
-34 14 -70 31 -96 47 -261 99 -312 99 -36 0 -51 -6 -76 -29 -32 -30 -35 -39
-32 -103 1 -42 48 -180 97 -287 19 -41 34 -75 34 -76 0 -1 -35 -15 -77 -30
-103 -35 -237 -103 -280 -140 -28 -24 -36 -39 -40 -76 -5 -40 -2 -50 25 -80
37 -42 222 -137 330 -169 23 -7 42 -14 42 -15 0 -2 -16 -37 -35 -78 -44 -98
-93 -242 -98 -289 -8 -77 40 -131 116 -130 41 2 153 34 230 66 l38 17 -23 -31
c-55 -75 -186 -151 -294 -171 -77 -15 -197 -5 -267 21 -127 48 -247 169 -292
295 -33 94 -34 107 -35 355 -2 239 -13 333 -61 474 -30 91 -97 225 -130 262
-11 11 -19 23 -19 27 0 15 -136 160 -205 217 -116 97 -317 189 -495 225 -38 8
-530 15 -570 9z"/>
</g>
</svg>
