<svg id="Layer_5" enable-background="new 0 0 64 64" height="512" viewBox="0 0 64 64" width="512" xmlns="http://www.w3.org/2000/svg"><g><g><g><path d="m46 62h-28c-2.209 0-4-1.791-4-4v-52c0-2.209 1.791-4 4-4h28c2.209 0 4 1.791 4 4v52c0 2.209-1.791 4-4 4z" fill="#969faa"/></g><g><path d="m24 56-1.71 1.71c-.18.18-.44.29-.7.29h-.59c-.55 0-1-.45-1-1v-2c0-.55.45-1 1-1h.59c.26 0 .52.11.7.29z" fill="#e6e9ed"/></g><g><path d="m34 55v2c0 .55-.45 1-1 1h-2c-.55 0-1-.45-1-1v-2c0-.55.45-1 1-1h2c.55 0 1 .45 1 1z" fill="#e6e9ed"/></g><g><path d="m44 57c0 .55-.45 1-1 1h-.59c-.26 0-.52-.11-.7-.29l-1.71-1.71 1.71-1.71c.18-.18.44-.29.7-.29h.59c.55 0 1 .45 1 1z" fill="#e6e9ed"/></g><g><path d="m45 50h-26c-.552 0-1-.448-1-1v-38c0-.552.448-1 1-1h26c.552 0 1 .448 1 1v38c0 .552-.448 1-1 1z" fill="#69d6f4"/></g><g><path d="m18 30h-4-10c-1.1 0-2-.9-2-2v-12c0-1.1.9-2 2-2h10 4 18c1.1 0 2 .9 2 2v12c0 1.1-.9 2-2 2h-8v2.59c0 .78-.63 1.41-1.41 1.41-.38 0-.74-.15-1-.41l-3.59-3.59z" fill="#ffeaa7"/></g><g><path d="m49.87 39-7.87 7v-4-10z" fill="#dfb28b"/></g><g><path d="m62 32v14l-7.87-6.99z" fill="#dfb28b"/></g><g><path d="m62 46h-12-4-4l7.87-7 .38.34c.48.42 1.11.66 1.75.66s1.27-.24 1.75-.66l.38-.33z" fill="#d3a06c"/></g><g><path d="m54.13 39.01-.38.33c-.48.42-1.11.66-1.75.66s-1.27-.24-1.75-.66l-.38-.34-7.87-7h4 4 12z" fill="#cf9e76"/></g></g><g><path d="m31 5h6v2h-6z"/><path d="m27 5h2v2h-2z"/><path d="m21.586 53h-.586c-1.103 0-2 .897-2 2v2c0 1.103.897 2 2 2h.586c.526 0 1.042-.214 1.414-.586l2.414-2.414-2.414-2.414c-.372-.372-.888-.586-1.414-.586zm0 4h-.586v-2h.586l1 1z"/><path d="m33 53h-2c-1.103 0-2 .897-2 2v2c0 1.103.897 2 2 2h2c1.103 0 2-.897 2-2v-2c0-1.103-.897-2-2-2zm-2 4v-2h2l.002 2z"/><path d="m43 53h-.586c-.526 0-1.042.214-1.414.586l-2.414 2.414 2.414 2.414c.372.372.888.586 1.414.586h.586c1.103 0 2-.897 2-2v-2c0-1.103-.897-2-2-2zm-.586 4-1-1 1-1h.586l.002 2z"/><path d="m8 19h2c.552 0 1 .448 1 1h2c0-1.654-1.346-3-3-3h-2c-1.654 0-3 1.346-3 3s1.346 3 3 3h2c.552 0 1 .448 1 1s-.448 1-1 1h-2c-.552 0-1-.448-1-1h-2c0 1.654 1.346 3 3 3h2c1.654 0 3-1.346 3-3s-1.346-3-3-3h-2c-.552 0-1-.448-1-1s.448-1 1-1z"/><path d="m32 25h-2c-.552 0-1-.448-1-1h-2c0 1.654 1.346 3 3 3h2c1.654 0 3-1.346 3-3s-1.346-3-3-3h-2c-.552 0-1-.448-1-1s.448-1 1-1h2c.552 0 1 .448 1 1h2c0-1.654-1.346-3-3-3h-2c-1.654 0-3 1.346-3 3s1.346 3 3 3h2c.552 0 1 .448 1 1s-.448 1-1 1z"/><path d="m23 27h2v-10h-2.566l-2.434 4.057-2.434-4.057h-2.566v10h2v-7.057l3 5 3-5z"/><path d="m63 31h-12v-25c0-2.757-2.243-5-5-5h-28c-2.757 0-5 2.243-5 5v7h-9c-1.654 0-3 1.346-3 3v12c0 1.654 1.346 3 3 3h9v27c0 2.757 2.243 5 5 5h28c2.757 0 5-2.243 5-5v-11h12zm-44 0h2.586l3.293 3.293c.449.449 1.071.707 1.707.707 1.331 0 2.414-1.083 2.414-2.414v-1.586h7c1.654 0 3-1.346 3-3v-12c0-1.654-1.346-3-3-3h-17v-2h26v20h-4v16h4v2h-26zm34.083 7.588c-.598.531-1.568.53-2.166.001l-6.287-5.589h14.74zm-10.083-4.362 5.37 4.774-5.37 4.774zm1.63 10.774 5.272-4.686c.612.437 1.339.686 2.098.686s1.486-.249 2.099-.686l5.271 4.686zm11-6 5.37-4.774v9.547zm-40.63-33c0-1.654 1.346-3 3-3h28c1.654 0 3 1.346 3 3v25h-2v-20c0-1.103-.897-2-2-2h-26c-1.103 0-2 .897-2 2v2h-2zm-12 22v-12c0-.552.448-1 1-1h32c.552 0 1 .448 1 1v12c0 .552-.448 1-1 1h-9v3.586c0 .338-.468.532-.707.293l-3.879-3.879h-18.414c-.552 0-1-.448-1-1zm46 30c0 1.654-1.346 3-3 3h-28c-1.654 0-3-1.346-3-3v-27h2v18c0 1.103.897 2 2 2h26c1.103 0 2-.897 2-2v-2h2z"/><path d="m41 13h2v2h-2z"/><path d="m41 21h2v2h-2z"/><path d="m41 17h2v2h-2z"/><path d="m21 37h2v2h-2z"/><path d="m25 37h14v2h-14z"/><path d="m21 41h18v2h-18z"/><path d="m21 45h10v2h-10z"/><path d="m37 45h2v2h-2z"/><path d="m33 45h2v2h-2z"/><path d="m31 33h8v2h-8z"/></g></g></svg>